<svg id="a45345fd-ec18-477a-9e93-44c04a19602b" data-name="Layer 1" xmlns="http://www.w3.org/2000/svg" width="466.72" height="466.82" viewBox="0 0 466.72 466.82"><defs><style>.\39 6708295-d8d7-487e-b3c7-8b5183f03839{fill:#3681c3;}</style></defs><title>download-icon</title><path class="96708295-d8d7-487e-b3c7-8b5183f03839" d="M233.39,466.76q-105,0-210,.06c-8.67,0-15.62-2.63-20.38-10.13-2.42-3.81-3-8-3-12.42,0-13,0-26,0-39q0-189.48,0-379c0-2.5,0-5,.17-7.49A20.42,20.42,0,0,1,18.13.31a55.42,55.42,0,0,1,6-.25Q233.35,0,442.57,0c6.73,0,12.93,1,17.88,6a19.87,19.87,0,0,1,6.15,13.27c0.08,1.66.11,3.33,0.11,5q0,209.23,0,418.45c0,12.37-5,20-14.95,23.19-3.1,1-6.26.82-9.4,0.82Q337.87,466.77,233.39,466.76Zm1.78-55.27h100c18.33,0,36.66.18,55-.08,19.61-.28,32.63-11.79,32.73-29,0.18-30.33.06-60.65,0-91,0-5.5-1.44-10.49-5.36-14.61a23.81,23.81,0,0,0-26.19-5.62c-8.92,3.51-13.64,10.76-13.65,21.12,0,22-.12,44,0.09,66,0,4.07-.87,5.29-5.14,5.28q-136.72-.2-273.45,0c-4.69,0-5.35-1.52-5.31-5.63q0.28-33.24,0-66.49c-0.1-12.64-9.83-21.58-22.74-21.44S48.87,279,48.81,291.37c-0.17,31.66-.05,63.32,0,95,0,7.17,3.11,12.82,8.71,17.15,7.57,5.86,16.3,8,25.71,8Q159.18,411.47,235.17,411.49ZM215.37,270c-1.35-1.62-1.76-2.15-2.2-2.63q-29-31.71-58.05-63.42c-4.33-4.74-9.42-7.94-15.91-8.41a20,20,0,0,0-19.48,11.37c-3.74,8-2.15,16.91,4.54,23.94q47.36,49.82,94.82,99.55c13,13.6,21.1,13.3,34.21-.56Q279.58,302.07,306,274.4c13.9-14.61,27.93-29.09,41.69-43.83,11.5-12.32,6.21-31.16-9.67-34.61-8.63-1.88-15.6,1.64-21.37,8q-18.69,20.5-37.43,41c-7.36,8-14.78,16-22.86,24.79v-5.93q0-78,0-156c0-11,.08-22,0-33a20.28,20.28,0,0,0-12.86-19.1c-13.87-5.49-28,4.57-28,20.06q-0.06,94,0,188C215.37,265.33,215.37,267,215.37,270Z"/></svg>