<svg id="1eeba0d5-8e65-4d2d-9577-f6b2467e262b" data-name="Layer 3" xmlns="http://www.w3.org/2000/svg" width="413.19" height="329.34" viewBox="0 0 413.19 329.34"><defs><style>.\33 0dfe831-e26a-40d9-b71d-2a8f2ca35bb2{fill:#f99e1e;}.cf78fe6c-53fe-4abd-83ce-3289fa34b4d7{fill:#ffcb29;}.c7410044-cfbc-40e1-bc39-00fb055f7552{fill:#ffdf81;}</style></defs><title>audio-file-folder</title><path class="30dfe831-e26a-40d9-b71d-2a8f2ca35bb2" d="M0,80V29S-0.87,16.35,5.47,10a33.31,33.31,0,0,1,24-10c31.33,0.51,111,0,111,0l46.33,45.67L0,65.67H0"/><rect class="cf78fe6c-53fe-4abd-83ce-3289fa34b4d7" x="0.05" y="40.67" width="413.14" height="288.67" rx="25" ry="25"/><rect class="c7410044-cfbc-40e1-bc39-00fb055f7552" x="69.62" y="74.67" width="273" height="233.33"/><path d="M287.22,252.59V164.76c-0.23-.08-0.44-0.17-0.67-0.23l-23.16-5.72-24.2-6-26.45-6.53-27.14-6.7-5.88-1.45c-0.26-.06-0.52-0.11-0.83-0.17a5.06,5.06,0,0,0-.08.52c0,0.3,0,.59,0,0.89q0,50.19,0,100.38a13.41,13.41,0,0,1-3.74,9.45,16.4,16.4,0,0,1-2.78,2.37,21.74,21.74,0,0,1-7,3.08,44.56,44.56,0,0,1-6.85,1.14,66.65,66.65,0,0,1-10.68.13,76.33,76.33,0,0,1-24.07-5.33,48.41,48.41,0,0,1-11.44-6.47,32.16,32.16,0,0,1-7.7-8.34,26.78,26.78,0,0,1-3.86-10.54,29.2,29.2,0,0,1-.12-7.55,19.4,19.4,0,0,1,1.32-5.25,14.38,14.38,0,0,1,7.68-7.81,21.57,21.57,0,0,1,5.64-1.6,36.39,36.39,0,0,1,9.07-.15,64.16,64.16,0,0,1,11,2.09,96.43,96.43,0,0,1,26.56,11.9,48.68,48.68,0,0,1,8.28,6.59c0.08,0.08.18,0.15,0.33,0.28a1.32,1.32,0,0,0,.12-0.33c0-.33,0-0.65,0-1q0-62.18,0-124.35c0-.41,0-0.82,0-1.3a4.26,4.26,0,0,1,.56.05l18.76,4.62,24.2,6L240,113.84l31.29,7.71,23.34,5.75c0.25,0.06.5,0.15,0.77,0.23a3.38,3.38,0,0,1,.06.38c0,0.27,0,.53,0,0.8q0,70,0,140A12.93,12.93,0,0,1,294.4,274a14.65,14.65,0,0,1-4.57,5.72,21,21,0,0,1-7.66,3.66,43.6,43.6,0,0,1-6.31,1.11,63.9,63.9,0,0,1-9.52.29c-2-.07-3.91-0.27-5.86-0.46a72.64,72.64,0,0,1-10.34-1.82,62.58,62.58,0,0,1-15.75-6,39.85,39.85,0,0,1-9.09-6.82A27.83,27.83,0,0,1,218,257a29,29,0,0,1-.87-8.3,22.76,22.76,0,0,1,.83-5.62,14.7,14.7,0,0,1,9.9-10.27,23.52,23.52,0,0,1,5.21-1.12,40.22,40.22,0,0,1,7.65,0,66,66,0,0,1,14.1,2.92A96.75,96.75,0,0,1,278,245.34a50.31,50.31,0,0,1,8.74,6.87C286.86,252.31,287,252.39,287.22,252.59Z"/></svg>