<svg id="d1d7de70-0201-40b4-a200-2ee348f6882f" data-name="Layer 3" xmlns="http://www.w3.org/2000/svg" width="413.19" height="329.34" viewBox="0 0 413.19 329.34"><defs><style>.\31 61c2280-f0e7-418f-a7fb-41c9d98fdcf7{fill:#f99e1e;}.\30 1029944-5078-4848-9260-6b2c71e0f96c{fill:#ffcb29;}.\35 bbadfdc-0121-49a2-a1bc-77cb37289da8{fill:#ffdf81;}.\32 ebb6c1a-12f3-47b8-b86e-82d6291750c0{fill:#249b88;}.\35 ef8ecb8-57f8-47a9-864b-188c74bbf03e{fill:#f2b34f;}.\36 1f393c3-c717-445d-9247-48b40d482d51{fill:#4c4944;}.e6e8f2ae-d2ae-4270-80be-788e71fa23ae{fill:#eb9a25;}</style></defs><title>file-folder</title><path class="161c2280-f0e7-418f-a7fb-41c9d98fdcf7" d="M0,80V29S-0.87,16.35,5.47,10a33.31,33.31,0,0,1,24-10c31.33,0.51,111,0,111,0l46.33,45.67L0,65.67H0"/><rect class="01029944-5078-4848-9260-6b2c71e0f96c" x="0.05" y="40.67" width="413.14" height="288.67" rx="25" ry="25"/><rect class="5bbadfdc-0121-49a2-a1bc-77cb37289da8" x="110.47" y="74.67" width="193.33" height="233.33"/><path class="2ebb6c1a-12f3-47b8-b86e-82d6291750c0" d="M238.18,226.49a81,81,0,0,1,38.1,20.83c11.85,11.6,28.8,29.39,19,41.85-8.13,10.36-25.36,8.64-38.74,9.16-33.31,1.3-66.71.85-100.06,0.31-31.07-.51-36.66-11.81-19.66-38.94,11.19-17.86,28-28.09,48.14-33.17C202.73,240.3,220.46,240.48,238.18,226.49Z"/><path class="5ef8ecb8-57f8-47a9-864b-188c74bbf03e" d="M258.23,137.7c20.39,32.7-4.62,52-21.74,73.63l-49.84-.08c-19.47-20-38.11-40.38-28-71.93C191.81,136.5,224.36,96.85,258.23,137.7Z"/><path class="61f393c3-c717-445d-9247-48b40d482d51" d="M258.23,137.7c-33.86-40.86-66.42-1.2-99.58,1.62,4.93-33.48,20.26-61,57.54-55C240.19,88.19,268.07,101.3,258.23,137.7Z"/><path class="e6e8f2ae-d2ae-4270-80be-788e71fa23ae" d="M186.64,211.25l49.84,0.08c0.56,5.06,1.11,10.11,1.68,15.16-17.7,14-35.43,13.8-53.18,0Q185.8,218.89,186.64,211.25Z"/><circle class="61f393c3-c717-445d-9247-48b40d482d51" cx="192.94" cy="149.74" r="5.01"/><circle class="61f393c3-c717-445d-9247-48b40d482d51" cx="227.19" cy="149.74" r="5.01"/><ellipse class="e6e8f2ae-d2ae-4270-80be-788e71fa23ae" cx="158.65" cy="146.58" rx="6.74" ry="8.17"/><ellipse class="e6e8f2ae-d2ae-4270-80be-788e71fa23ae" cx="260.26" cy="146.58" rx="6.74" ry="8.17"/></svg>